<svg width="51" height="50" viewBox="0 0 51 50" fill="none" xmlns="http://www.w3.org/2000/svg">
<g filter="url(#filter0_d)">
<path d="M29.0986 15.3474C29.0008 14.7527 28.5816 14.2734 28.0041 14.096C27.4265 13.919 26.8119 14.0813 26.3986 14.5199L22.7244 18.4201C22.5678 18.5862 22.3396 18.6646 22.1135 18.6294L16.8073 17.8078C16.2112 17.7153 15.6258 17.9649 15.2804 18.4581C14.9354 18.9509 14.9011 19.5864 15.1918 20.1149L17.7788 24.8207C17.8892 25.0211 17.8934 25.2628 17.7908 25.4667L15.3825 30.2533C15.1116 30.7911 15.1694 31.4247 15.5333 31.907C15.8975 32.389 16.4912 32.6189 17.0835 32.5075L22.356 31.5159C22.5809 31.4737 22.8126 31.5445 22.9749 31.7052L26.7936 35.4839C27.1294 35.817 27.5707 35.9772 28.0361 35.9358C28.7606 35.8725 29.3677 35.3014 29.4602 34.5697L30.1319 29.2512C30.1602 29.029 30.304 28.8252 30.5021 28.7224L35.2704 26.2719C35.5025 26.1528 35.694 25.9866 35.8396 25.7787C36.1055 25.399 36.1882 24.9205 36.0668 24.4667C35.9468 24.0149 35.6443 23.6548 35.2172 23.4537L30.3601 21.1581C30.1531 21.0604 30.0078 20.867 29.9705 20.6412L29.0986 15.3474Z" fill="white"/>
</g>
<defs>
<filter id="filter0_d" x="0.995483" y="0.0256348" width="49.126" height="49.9166" filterUnits="userSpaceOnUse" color-interpolation-filters="sRGB">
<feFlood flood-opacity="0" result="BackgroundImageFix"/>
<feColorMatrix in="SourceAlpha" type="matrix" values="0 0 0 0 0 0 0 0 0 0 0 0 0 0 0 0 0 0 127 0"/>
<feOffset/>
<feGaussianBlur stdDeviation="7"/>
<feColorMatrix type="matrix" values="0 0 0 0 1 0 0 0 0 1 0 0 0 0 1 0 0 0 0.5 0"/>
<feBlend mode="normal" in2="BackgroundImageFix" result="effect1_dropShadow"/>
<feBlend mode="normal" in="SourceGraphic" in2="effect1_dropShadow" result="shape"/>
</filter>
</defs>
</svg>
