<svg width="43" height="43" viewBox="0 0 43 43" fill="none" xmlns="http://www.w3.org/2000/svg">
<g filter="url(#filter0_d)">
<path d="M16.4359 15.9443C16.0645 15.8402 15.6732 15.9537 15.4142 16.2406C15.1553 16.5278 15.0833 16.928 15.2258 17.2864L16.4941 20.4718C16.5481 20.6075 16.5318 20.7611 16.4502 20.8827L14.5388 23.7378C14.324 24.0584 14.3104 24.4654 14.5031 24.7991C14.6956 25.1325 15.0548 25.3242 15.4399 25.2985L18.8686 25.0708C19.0146 25.061 19.1559 25.1239 19.2464 25.2385L21.371 27.9296C21.6097 28.2321 21.9927 28.3699 22.3708 28.2893C22.7488 28.2085 23.0428 27.9264 23.1383 27.5527L23.989 24.2269C24.0254 24.0851 24.1291 23.9698 24.2662 23.9192L27.4902 22.7265C27.7742 22.6218 27.9865 22.4092 28.0883 22.1281C28.2475 21.6909 28.0805 21.1843 27.6812 20.9328L24.7785 19.105C24.6573 19.0285 24.578 18.89 24.572 18.7473L24.4403 15.3194C24.434 15.1526 24.3894 14.9966 24.3082 14.8559C24.1599 14.599 23.9048 14.4217 23.6088 14.3693C23.3143 14.3168 23.0237 14.3948 22.7916 14.5881L20.1468 16.7841C20.0341 16.8777 19.8827 16.9097 19.7417 16.8703L16.4359 15.9443Z" fill="white"/>
</g>
<defs>
<filter id="filter0_d" x="0.367615" y="0.353333" width="41.7804" height="41.9586" filterUnits="userSpaceOnUse" color-interpolation-filters="sRGB">
<feFlood flood-opacity="0" result="BackgroundImageFix"/>
<feColorMatrix in="SourceAlpha" type="matrix" values="0 0 0 0 0 0 0 0 0 0 0 0 0 0 0 0 0 0 127 0"/>
<feOffset/>
<feGaussianBlur stdDeviation="7"/>
<feColorMatrix type="matrix" values="0 0 0 0 1 0 0 0 0 1 0 0 0 0 1 0 0 0 0.5 0"/>
<feBlend mode="normal" in2="BackgroundImageFix" result="effect1_dropShadow"/>
<feBlend mode="normal" in="SourceGraphic" in2="effect1_dropShadow" result="shape"/>
</filter>
</defs>
</svg>
