<svg width="52" height="51" viewBox="0 0 52 51" fill="none" xmlns="http://www.w3.org/2000/svg">
<g filter="url(#filter0_d)">
<path d="M34.0697 17.6427C34.2172 17.0356 34.0114 16.4086 33.5322 16.0055C33.0527 15.6026 32.4007 15.5086 31.8286 15.7596L26.7432 17.9929C26.5266 18.088 26.2771 18.0703 26.0756 17.9452L21.3454 15.0122C20.8141 14.6825 20.1544 14.6835 19.6252 15.0142C19.0964 15.3447 18.8063 15.9372 18.8696 16.5592L19.4321 22.097C19.4562 22.333 19.3623 22.5652 19.1819 22.7183L14.9454 26.31C14.4691 26.7134 14.2676 27.3414 14.4195 27.9489C14.5718 28.5563 15.0451 29.0162 15.6555 29.1498L21.0877 30.339C21.3194 30.3899 21.5119 30.5513 21.6017 30.7704L23.7148 35.9224C23.9003 36.3762 24.2565 36.7078 24.7173 36.8569C25.4342 37.0899 26.2448 36.7908 26.6295 36.1301L29.4244 31.3275C29.5414 31.127 29.7612 30.9907 29.9918 30.973L35.534 30.566C35.8036 30.5464 36.0537 30.4654 36.2769 30.3259C36.6843 30.0713 36.957 29.6483 37.025 29.1661C37.0934 28.6864 36.9507 28.2204 36.6246 27.8555L32.9199 23.698C32.7621 23.5208 32.7017 23.2775 32.7575 23.0469L34.0697 17.6427Z" fill="white"/>
</g>
<defs>
<filter id="filter0_d" x="0.369751" y="0.765564" width="50.672" height="50.1697" filterUnits="userSpaceOnUse" color-interpolation-filters="sRGB">
<feFlood flood-opacity="0" result="BackgroundImageFix"/>
<feColorMatrix in="SourceAlpha" type="matrix" values="0 0 0 0 0 0 0 0 0 0 0 0 0 0 0 0 0 0 127 0"/>
<feOffset/>
<feGaussianBlur stdDeviation="7"/>
<feColorMatrix type="matrix" values="0 0 0 0 1 0 0 0 0 1 0 0 0 0 1 0 0 0 0.5 0"/>
<feBlend mode="normal" in2="BackgroundImageFix" result="effect1_dropShadow"/>
<feBlend mode="normal" in="SourceGraphic" in2="effect1_dropShadow" result="shape"/>
</filter>
</defs>
</svg>
