<svg width="47" height="62" viewBox="0 0 47 62" fill="none" xmlns="http://www.w3.org/2000/svg">
<path d="M45.9 34.8C45.9 34.8 44.6 51.6 23.4 60.9C2.19999 51.6 0.799988 34.8 0.799988 34.8V10.6L23.3 0.899994L45.8 10.6V34.8H45.9Z" fill="#F78472"/>
<path d="M45.9 34.8V10.6L23.4 0.899994V60.9C44.6 51.6 45.9 34.8 45.9 34.8Z" fill="#FC9C7F"/>
<path d="M45.9 34.8C45.9 34.8 44.6 51.6 23.4 60.9C2.19999 51.6 0.799988 34.8 0.799988 34.8V10.6L23.3 0.899994L45.8 10.6V34.8H45.9Z" stroke="#961937" stroke-width="1.6875" stroke-miterlimit="10"/>
<path d="M23.4 41.9C30.3036 41.9 35.9 36.3036 35.9 29.4C35.9 22.4964 30.3036 16.9 23.4 16.9C16.4964 16.9 10.9 22.4964 10.9 29.4C10.9 36.3036 16.4964 41.9 23.4 41.9Z" fill="white" stroke="#961937" stroke-width="1.6008" stroke-miterlimit="10"/>
<path d="M16 26L23.6 33.7L38.5 18.8" stroke="#961937" stroke-width="1.9209" stroke-miterlimit="10"/>
</svg>
